<?xml version="1.0" encoding="UTF-8"?>
<svg id="Layer_2" data-name="Layer 2" xmlns="http://www.w3.org/2000/svg" viewBox="0 0 1117.59 275.96">
  <defs>
    <style>
      .cls-1 {
        fill: #505a48;
        font-family: ArtifexCF-ExtraBold, 'Artifex CF';
        font-size: 172.07px;
        font-weight: 700;
      }

      .cls-2 {
        font-family: FuturaBT-Heavy, 'Futura Hv BT';
        font-size: 66.61px;
        font-weight: 800;
        letter-spacing: 1.61em;
      }

      .cls-2, .cls-3 {
        fill: #ae8148;
      }

      .cls-4 {
        letter-spacing: -.01em;
      }

      .cls-5 {
        letter-spacing: 0em;
      }
    </style>
  </defs>
  <g id="logo-pozitiv">
    <g>
      <g id="ZNAK">
        <g id="pozitiv-znak">
          <path class="cls-3" d="M209.09,114.63c-1.35-.93-2.44.27-2.61.65-4.09,9.09-7.78,18.27-8.51,28.51-2.25,31.76,8.29,60.67,19.9,89.28,1.05,2.58,4.39,5.07,7.18,5.92,4.36,1.32,7.35-.41,5.49-6.1-5.27,1.38-8.72-.53-10.39-5.47-5.53-16.43-11.84-32.66-16.32-49.38-5.41-20.15-6.19-40.45,4.65-59.61.59-1.05,1.81-2.99.61-3.81Z"/>
          <path class="cls-3" d="M25.89,261.67c2.27-14.22,1.05-28.19-4.81-41.33-6.63-14.88-14.05-29.42-20.87-43.56-.11.44-.13.87-.21,1.3v12.14c1.4,7.01,4.95,13.58,9.13,20,6.83,10.49,11.02,21.95,11.95,34.48.38,5.08.62,14.7.88,22.01h3.33c.28-2.3.51-4.45.6-5.04Z"/>
          <path class="cls-3" d="M203.62,56.28c-1.99,13.96-9.54,25.34-17.92,36.26-9.83,12.8-16.76,26.75-17.48,43.33-.65,15.17-1.96,30.32-2.62,45.49-1.14,26.4-2.04,52.81-2.87,79.22-.02.79.32,3.43.76,6.14h3.6c.08-1.87.14-3.53.15-3.79,2.24-31.61,4.37-63.23,6.7-94.84,1.63-22.2,3.7-44.28,14.9-64.37,4.91-8.81,9.04-18.09,13.15-27.32,5.19-11.64,6.96-31.95,6.84-44.63,0-.07,0-.13,0-.2h-4.17c-.22,7.8-.25,19.09-1.05,24.72Z"/>
          <path class="cls-3" d="M0,112.83v4.97c10.51-25.67,12.96-59.03,15.25-86.23h-3.74c-.68,3.36-1.3,7.24-1.46,8.41-2.72,19.13-5.2,38.3-7.8,57.44-.7,5.14-1.48,10.28-2.24,15.42Z"/>
          <path class="cls-3" d="M231.05,262.73c.96-5.04-3.31-12.9-7.49-14.06-8.16-2.26-12.74,0-15.26,7.72-.54,1.64-.94,6.32-1.33,10.33h4.39c.52-1.97.97-4.04,1.77-5.51,1.32-2.45,2.9-6.27,5.78-6.37,2.87-.09,4.29,3.84,6.23,5.96.35.38.43,3.22.52,5.92h4.93c.23-1.92.4-3.62.47-3.98Z"/>
          <path class="cls-3" d="M43.17,260.49c-.33-9.67-.6-19.38-1.79-28.97-1.61-13.07-3.24-26.23-11.68-37.3-15.68-20.58-20.77-42.77-12.39-68.2,9.17-27.86,14.5-64.55,14.03-94.1,0-.12-.04-.24-.05-.36h-3.68c-.52,9.77-.67,24.02-2.25,32.01-4.66,23.46-9.93,46.8-15.4,70.09-4.58,19.5-3.78,38.56,7.48,55.27,14.73,21.86,22.02,45.26,20.67,71.51-.04.79.35,3.51.86,6.28h3.3c.52-2.74.93-5.44.9-6.22Z"/>
          <path class="cls-3" d="M0,220.51c2.19,14.08,4.39,31.66,6.65,46.2h3.23c1.61-13.37-2.6-39.51-9.88-50.95v4.75Z"/>
          <path class="cls-3" d="M45.08,77.21c-3.48,1.25-7.58,1.5-8.3,3.19-2.96,6.9-5.13,14.14-7.49,21.3-.25.75-.78,2.13.35,2.6,1.45.6,2-1.11,2.3-1.89.23-.58.44-1.16.6-1.76,1.25-4.43,2.3-8.92,3.64-13.33,1.33-4.37,3.9-5.66,7.85-2.65,1.19.91,2.29,3.04,3.74,2.55,1.26-.42.8-2.29,1.51-4.34,8.66,7.27,16.14,14.4,20.35,25.07-.57.47-1.63.41-3.81-1.86-3.86-4.2-7.56-8.57-11.69-12.49-1.04-.99-3.84-1.85-5.24-.73-.49.4-.13,1.26-.19,1.89.45.48.84,1.02,1.35,1.42.87.67,1.74,1.41,2.73,1.85,12.24,5.42,15.29,15.65,15.78,27.99.83,20.68-8.55,37.86-17.61,55.23-2.05,3.92-5.36,4.63-8.59,1.25-9.56-10-17.82-20.73-19.11-35.26-.27-2.99-1-5.94-1.85-10.75-2.32,16.47-.43,29.78,10.82,40.53,2.85,2.73,5.24,5.95,7.85,8.92,6,6.83,10.34,6.35,14.4-1.8,3.91-7.84,8.09-15.61,11.22-23.77,2.5-6.49,4.35-13.43,5.13-20.32.87-7.68-.05-18.1-1.2-26.04.6,0,1.56.68,3.19,2.72,2.25,15.84,2.44,27.64-1.75,44.48,1.4-1.97,2.76-3.71,3.43-5.8,2.47-19.41,1.9-24.26.96-31.14-1.86-13.65-5.55-25.08-14.76-34.98-3.29-3.53-6.5-7.27-9-11.37-5.13-8.41-9.13-17.2-7.75-27.64.51-3.88.3-12.61.18-18.7h-3.31c-1.51,14.29,2.45,33.56,4.25,45.65Z"/>
          <path class="cls-3" d="M186.95,174.14c4.08-22.38,8.16-44.75,12.25-67.13-9.81,21.38-13.27,43.9-12.25,67.13Z"/>
          <path class="cls-3" d="M190.6,266.71h2.42c6.73-19.45,2.45-69.21-8.15-85.43-.07,1.18-.3,2.06-.15,2.86,2.34,12.27,4.36,24.61,7.2,36.76,2.6,11.14,3.18,22.07.18,33.17-.61,2.28-1.07,7.97-1.52,12.64Z"/>
          <path class="cls-3" d="M230.31,77.2c-2.63,12.14-3.13,24.12-13.85,33.57,9.71-1.57,16.29-19.59,13.85-33.57Z"/>
          <path class="cls-3" d="M228.15,132.28c-.29-1.96-1.46-3.78-2.66-5.61-1.05-1.59-3.08-2.17-4.81-1.38-2.92,1.33-6.01,2.61-6.68,4.67-2.52,7.79-5.26,16.48-4.14,24.27,2.92,20.18,7.85,40.06,12.02,60.06.22,1.06.71,2.08,1.21,3.05,1.92,3.71,4.85,4.22,7.15.95,1.91-2.73,3.22-6.23,3.67-9.54.61-4.54.56-26.18-.13-32.28-1.67-14.76-3.45-29.51-5.65-44.19ZM226.98,208.76c-1.72.28-2.52-2.69-2.96-4.27-5.33-13.93-7.77-29.6-10.44-43.84-.71-3.8-1.45-8.12-1.22-11.96.35-6.16,2.04-11.83,3.67-17.61.34-1.22,1.91-3.25,3.42-2.98,1.55.27,2.14,2.66,2.29,4.09,2.37,23.82,4.62,47.66,6.75,71.5.14,1.63.26,4.77-1.49,5.05Z"/>
          <path class="cls-3" d="M121.83,231.29c-3.91-11.24-4.96-22.09-2.76-33.57,1.59-8.29,2.9-16.64,4.33-24.96-13.85,29.27-7.01,64.58.64,93.95h3.96c-1.71-11.27-3.05-26.43-6.17-35.42Z"/>
          <path class="cls-3" d="M143.26,55.31c9.09,8.65,21.09,4.33,24.02-7.8.74-3.07,1.61-10.72,2.46-15.94h-6.7c-8.04,13.03-7.07,27.26-20.12,10.48-2.35-3.02-3.21-8.88-3.76-10.48h-8.86c4.11,7.42,7.97,19,12.97,23.75Z"/>
          <path class="cls-3" d="M81.68,262.66c.41-2.58.29-5.24.45-7.86.63-9.98,1.28-19.96,1.93-29.93.02-.26-.03-.66-.52-.7-.44-.04-.53.53-.55.72-1.85,12.7-3.67,25.41-5.34,38.14-.03.26.16,1.85.43,3.69h2.94c.33-1.93.6-3.66.66-4.05Z"/>
          <path class="cls-3" d="M136.12,237.21c-.42,7.42-1.06,19.98-1.67,29.5h7.72c.08-2.21.14-4.25.17-4.65,2.54-39.96,5.73-79.82,5.89-119.99.15-35.66-14.84-64.4-26.37-97.77-1.06-3.08-1.6-10.82-2.79-12.75h-6.6c4.59,11.35,9.13,27.8,13.85,37.79,10.42,22.05,16.19,45.16,15.07,69.61-1.5,32.76-3.43,65.5-5.27,98.24Z"/>
          <path class="cls-3" d="M156.9,105.11c.9,26.21,1.78,51.63,2.65,77.06,3.67-18.99,1.8-65.51-2.65-77.06Z"/>
          <path class="cls-3" d="M158.17,193.77c-.91,19.72-1.95,49.05-3.01,72.94h3.01v-72.94Z"/>
          <path class="cls-3" d="M0,31.56v38.98c1.89-10.33,2.96-28,3.77-38.98H0Z"/>
          <path class="cls-3" d="M115.45,126.7c-.05.5,0,1.44.85,1.42.85-.02,1.01-1.12,1.01-1.65v-28.91c9.07,19.11,3.12,39.49,6.77,59.11,1.01-16,1.27-32.01.87-48.01-.13-5.16-1.22-10.59-3.16-15.37-6.67-16.46-13.48-32.13-19.26-48.93-.63-1.84-2.52-7.99-4.05-12.79h-1.16c4.99,28.95,21.02,65.85,18.13,95.14Z"/>
          <path class="cls-3" d="M93.61,82.87c12.55,30.27,14.18,61.23,6.18,92.99,11.17-31.73,8.49-62.75-6.18-92.99Z"/>
          <path class="cls-3" d="M44.68,107.85c-8.12,0-14.56,11.26-14.71,28.51.21,6.18,3.05,11.79,5.03,16.39,2.91,6.74,5.68,11.29,9.68,12.12,7.51,0,14.3-5.31,15.19-19.41.07-1.15-.48-7.92-.48-9.1.47-11.78-6.58-28.51-14.71-28.51ZM44.7,162.35c-2.78-.16-4.51-4.18-7.1-10.38-1.35-3.24-4.02-7.05-4.87-11.25-.63-3.07-.83-6.24-.57-9.36,1.06-12.3,6.08-20.22,11.17-20.62l2.46-.18c5.55,0,11.29,10.71,11.29,25.76,0,1.18.56,7.94.5,9.05-.76,13.12-6.42,16.14-12.88,16.98Z"/>
          <path class="cls-3" d="M69.98,249.41c-.61-12.32-1.29-24.62,3.05-36.56,6.08-16.73,11.22-33.84,18.13-50.21,8.66-20.51,7.16-39.79-3.43-58.87-11.25-20.27-21.91-48.37-24.49-72.2h-5.9c1.09,9.34,1.54,23.72,4.21,31.08,5.45,15.01,12.28,29.54,19.09,44.02,7.82,16.64,10.29,33.64,4.56,51.27-6.11,18.8-11.79,37.83-19.35,56.06-6.25,15.07-4,35.96-3.11,52.73h7.83c-.2-6.11-.4-13.71-.58-17.3Z"/>
          <path class="cls-3" d="M56.15,204.47c-7.13,17.52-5,42.58-3.76,62.24h.64c1.05-19.5,2.1-44.32,3.12-62.24Z"/>
          <path class="cls-3" d="M114.82,150.27c-.8-.1-1.34,1.07-1.41,1.47-1.89,11.4-3.68,22.37-5.57,33.77-.17,1.01.56,2.16,1.59,2.05.78-.09,1.92-.62,2.15-2.31,2.74-20.39,1.48-12,4.11-33.51.05-.42-.03-1.37-.87-1.47Z"/>
          <path class="cls-3" d="M47.97,119.79c-.53-1.19-1.45-2.67-4.37-2.1-.91.18-2.56,1.97-2.62,3.23-.38,7.66-3.75,8.57-2.45,22.18-.03,3.07,2.33,6.53,4.42,9.17,2.97,3.76,6.31,2.98,7.96-1.37.02-.04.03-.09.05-.13,3.05-8.13,2.63-17.17-.57-25.24-.76-1.92-1.56-3.84-2.41-5.75Z"/>
        </g>
      </g>
      <text class="cls-1" transform="translate(275.42 164.57)"><tspan x="0" y="0">S</tspan><tspan class="cls-5" x="97.39" y="0">L</tspan><tspan x="210.1" y="0">I</tspan><tspan class="cls-4" x="276.52" y="0">Š</tspan><tspan x="371.33" y="0">URIĆ</tspan></text>
      <text class="cls-2" transform="translate(308.3 260.26)"><tspan x="0" y="0">PILANA</tspan></text>
    </g>
  </g>
</svg>